<?xml version="1.0" encoding="UTF-8"?> <svg xmlns="http://www.w3.org/2000/svg" xmlns:xlink="http://www.w3.org/1999/xlink" xmlns:v="https://vecta.io/nano" width="90" height="70" fill="none"><g clip-path="url(#A)"><g fill="#56c4cf"><path d="M61.539 55.21H8.616c-1.819 0-3.308-1.516-3.308-3.368v-6.737c0-1.853 1.488-3.368 3.308-3.368h52.923V55.21z"></path><path d="M61.538 24.895h6.615c9.096 0 16.539 7.579 16.539 16.842V55.21H61.538V24.895z"></path></g><path d="M66.5 43.42V29.947h1.654c6.45 0 11.577 5.221 11.577 11.789v1.684H66.5z" fill="#fff23e"></path><g fill="#652d90"><path d="M85.519 60.263H4.481C3.158 60.263 2 59.084 2 57.737s1.158-2.526 2.481-2.526h81.038c1.323 0 2.481 1.179 2.481 2.526s-1.158 2.526-2.481 2.526z"></path><path d="M21.848 67c4.567 0 8.269-3.77 8.269-8.421s-3.702-8.421-8.269-8.421-8.269 3.77-8.269 8.421S17.281 67 21.848 67z"></path></g><use xlink:href="#B" fill="#fff"></use><path d="M71.462 67c4.567 0 8.269-3.77 8.269-8.421s-3.702-8.421-8.269-8.421-8.269 3.77-8.269 8.421S66.895 67 71.462 67z" fill="#652d90"></path><path d="M71.461 61.947c1.827 0 3.308-1.508 3.308-3.368s-1.481-3.368-3.308-3.368-3.308 1.508-3.308 3.368 1.481 3.368 3.308 3.368z" fill="#fff"></path><path d="M56.245 3H14.899c-.992 0-1.654.674-1.654 1.684v35.368c0 1.011.662 1.684 1.654 1.684h41.346c.992 0 1.654-.674 1.654-1.684V4.684c0-1.011-.662-1.684-1.654-1.684z" fill="#652d90"></path><g fill="#fff"><path d="M32.111 21.964l1.541 7.127 10.14-5.249-11.681-1.877z"></path><path d="M34.983 11.299l-2.872 10.665 11.681 1.877-8.81-12.542zM22.606 9.737l12.087 1.479-2.855 10.599-9.231-12.077zm-.098 2.093h1.347l3.78 4.934-5.127-4.934zm21.607 11.927l-3.521-4.967 5.695-1.046-2.174 6.014zm-.583 1.463l.357-1.096-8.875 4.602 8.518-3.505zm-11.68-2.974l1.85 8.522-5.484 4.568 3.634-13.091zm13.887-1.976l3.229-.05-2.337-2.425-.893 2.475z"></path></g></g><defs><clipPath id="A"><path fill="#fff" d="M0 0h90v70H0z"></path></clipPath><path id="B" d="M21.846 61.947c1.827 0 3.308-1.508 3.308-3.368s-1.481-3.368-3.308-3.368-3.308 1.508-3.308 3.368 1.481 3.368 3.308 3.368z"></path></defs></svg> 