<?xml version="1.0" encoding="UTF-8"?> <svg xmlns="http://www.w3.org/2000/svg" xmlns:v="https://vecta.io/nano" width="70" height="70" fill="none"><path d="M40.804 21.033H22.266l-2.98 6.39-.997-2.306c.636-.355 1.085-1.009 1.085-1.791a2.08 2.08 0 0 0-2.076-2.076h-.331a2.08 2.08 0 0 0-2.076 2.076c0 .78.451 1.438 1.085 1.791l-.995 2.31-1.416-3.031-1.568-3.363H6.544C4.586 21.033 3 22.623 3 24.577v18.955c0 1.959 1.586 3.544 3.544 3.544a3.5 3.5 0 0 0 2.489-1.029l1.021 18.211c.076 1.412 1.294 2.561 2.702 2.561h8.753c1.408 0 2.627-1.149 2.703-2.559l2.022-36.136h14.569c1.956 0 3.544-1.59 3.544-3.544a3.55 3.55 0 0 0-3.544-3.546z" fill="#652d90"></path><path d="M17.132 19.328c3.891 0 7.044-5.096 7.044-9.605S21.023 3 17.132 3s-7.044 2.216-7.044 6.723 3.157 9.605 7.044 9.605zm48.469 12H30.628c-.839 0-1.399.62-1.399 1.551v32.57c0 .93.56 1.551 1.399 1.551h34.973C66.44 67 67 66.38 67 65.449v-32.57c0-.93-.56-1.551-1.399-1.551z" fill="#56c4cf"></path><path d="M55.459 31.328H41.82v14.688h13.639V31.328zM40.771 59.656h15.738v4.197H40.771z" fill="#fff23e"></path></svg> 